<?xml version="1.0" encoding="utf-8"?>
<!DOCTYPE svg PUBLIC "-//W3C//DTD SVG 1.1//EN" "http://www.w3.org/Graphics/SVG/1.1/DTD/svg11.dtd">
<svg version="1.1" id="Layer_1" xmlns="http://www.w3.org/2000/svg" xmlns:xlink="http://www.w3.org/1999/xlink" x="0px" y="0px"
	 width="1000px" height="1000px" viewBox="0 0 1000 1000" enable-background="new 0 0 1000 1000" xml:space="preserve">
<path d="M225.403,726.188c-6.627,0-12.983-2.633-17.67-7.319L7.819,518.954c-9.759-9.759-9.759-25.582,0-35.34L207.733,283.7
	c4.687-4.687,11.042-7.319,17.67-7.319s12.984,2.633,17.67,7.319l199.913,199.914c9.759,9.759,9.759,25.582,0,35.34L243.073,718.868
	C238.387,723.555,232.03,726.188,225.403,726.188z M60.83,501.284l164.573,164.573l164.573-164.573L225.403,336.71L60.83,501.284z"
	/>
<path d="M775.166,726.188c-6.396,0-12.791-2.439-17.67-7.319L557.582,518.954c-9.759-9.759-9.759-25.582,0-35.34L757.496,283.7
	c9.759-9.759,25.58-9.759,35.34,0L992.75,483.614c9.758,9.759,9.758,25.582,0,35.34L792.836,718.868
	C787.956,723.748,781.562,726.188,775.166,726.188z M610.593,501.284l164.573,164.573l164.573-164.573L775.166,336.71
	L610.593,501.284z"/>
<g>
	
		<rect x="358.924" y="634.805" transform="matrix(-0.7071 -0.7071 0.7071 -0.7071 305.211 1678.7535)" fill="#FFBA08" width="282.72" height="282.722"/>
	<path d="M500.284,1001.068c-6.395,0-12.79-2.439-17.67-7.319L282.7,793.836c-4.687-4.687-7.319-11.043-7.319-17.671
		s2.633-12.983,7.319-17.67l199.914-199.913c9.759-9.759,25.583-9.759,35.339,0l199.915,199.913
		c4.687,4.687,7.319,11.042,7.319,17.67s-2.633,12.984-7.319,17.671L517.953,993.749
		C513.075,998.629,506.679,1001.068,500.284,1001.068z M335.71,776.165l164.573,164.574l164.575-164.574L500.284,611.593
		L335.71,776.165z"/>
</g>
<g>
	
		<rect x="358.923" y="84.043" transform="matrix(-0.7071 -0.7071 0.7071 -0.7071 694.6547 738.5411)" width="282.721" height="282.721"/>
	<path d="M500.284,450.306c-6.395,0-12.79-2.44-17.67-7.319L282.7,243.074c-4.687-4.687-7.319-11.043-7.319-17.67
		s2.633-12.983,7.319-17.67L482.614,7.82c9.759-9.759,25.583-9.759,35.339,0l199.915,199.914c4.687,4.687,7.319,11.042,7.319,17.67
		s-2.633,12.984-7.319,17.67L517.953,442.987C513.075,447.866,506.679,450.306,500.284,450.306z M335.71,225.403l164.573,164.573
		l164.575-164.573L500.284,60.83L335.71,225.403z"/>
</g>
<rect x="333" y="749" width="343" height="50"/>
<rect x="391" y="658" width="218" height="50"/>
<rect x="396" y="842" width="208" height="50"/>
</svg>
